HIERARCHY
ROOT Hips
{
  OFFSET 5.80788e-005 67.184 3.4734
  CHANNELS 6 Xposition Yposition Zposition Zrotation Xrotation Yrotation
  JOINT Chest
  {
    OFFSET 0 8.7983 -4.7612
    CHANNELS 3 Zrotation Xrotation Yrotation
    JOINT Chest2
    {
      OFFSET 0 8.0291 0.4195
      CHANNELS 3 Zrotation Xrotation Yrotation
      JOINT Chest3
      {
        OFFSET 0 9.9351 -2.2114
        CHANNELS 3 Zrotation Xrotation Yrotation
        JOINT Neck
        {
          OFFSET 0 22.3885 -0.4656
          CHANNELS 3 Zrotation Xrotation Yrotation
          JOINT Head
          {
            OFFSET -0.0001 12.643 3.4389
            CHANNELS 3 Zrotation Xrotation Yrotation
            End Site
            {
              OFFSET 0.0001 17.6655 0.5274
            }
          }
        }
        JOINT LeftCollar
        {
          OFFSET 2.2603 21.606 7.4023
          CHANNELS 3 Zrotation Xrotation Yrotation
          JOINT LeftShoulder
          {
            OFFSET 13.5163 -1.1332 -5.0146
            CHANNELS 3 Zrotation Xrotation Yrotation
            JOINT LeftElbow
            {
              OFFSET -0.0995 -28.05 -0.2431
              CHANNELS 3 Zrotation Xrotation Yrotation
              JOINT LeftWrist
              {
                OFFSET 0.0679 -23.3996 -0.1402
                CHANNELS 3 Zrotation Xrotation Yrotation
                JOINT LeftFinger1
                {
                  OFFSET 0.7932 -9.069 2.5189
                  CHANNELS 3 Zrotation Xrotation Yrotation
                  JOINT LeftFinger11
                  {
                    OFFSET -0.8272 -3.3923 0.5977
                    CHANNELS 3 Zrotation Xrotation Yrotation
                    JOINT LeftFinger12
                    {
                      OFFSET -0.5649 -2.3158 0.4082
                      CHANNELS 3 Zrotation Xrotation Yrotation
                      End Site
                      {
                        OFFSET -0.4919 -1.6479 0.2673
                      }
                    }
                  }
                }
                JOINT LeftFinger2
                {
                  OFFSET 0.9159 -9.2044 0.2193
                  CHANNELS 3 Zrotation Xrotation Yrotation
                  JOINT LeftFinger21
                  {
                    OFFSET 0.0117 -4.1944 -0.0248
                    CHANNELS 3 Zrotation Xrotation Yrotation
                    JOINT LeftFinger22
                    {
                      OFFSET 0.0071 -2.3249 -0.0142
                      CHANNELS 3 Zrotation Xrotation Yrotation
                      End Site
                      {
                        OFFSET -0.1475 -2.0882 0.0028
                      }
                    }
                  }
                }
                JOINT LeftFinger3
                {
                  OFFSET 0.6113 -8.7231 -2.0637
                  CHANNELS 3 Zrotation Xrotation Yrotation
                  JOINT LeftFinger31
                  {
                    OFFSET -0.1927 -3.8059 -0.2383
                    CHANNELS 3 Zrotation Xrotation Yrotation
                    JOINT LeftFinger32
                    {
                      OFFSET -0.1091 -2.1688 -0.1362
                      CHANNELS 3 Zrotation Xrotation Yrotation
                      End Site
                      {
                        OFFSET -0.2358 -1.9176 -0.0906
                      }
                    }
                  }
                }
                JOINT LeftFinger4
                {
                  OFFSET -0.6151 -8.0947 -3.5641
                  CHANNELS 3 Zrotation Xrotation Yrotation
                  JOINT LeftFinger41
                  {
                    OFFSET -0.4882 -2.341 -0.6462
                    CHANNELS 3 Zrotation Xrotation Yrotation
                    JOINT LeftFinger42
                    {
                      OFFSET -0.3575 -1.7167 -0.4742
                      CHANNELS 3 Zrotation Xrotation Yrotation
                      End Site
                      {
                        OFFSET -0.4187 -1.5237 -0.3496
                      }
                    }
                  }
                }
                JOINT LeftFinger0
                {
                  OFFSET -1.42 -1.8761 1.4223
                  CHANNELS 3 Zrotation Xrotation Yrotation
                  JOINT LeftFinger01
                  {
                    OFFSET -1.1471 -3.4929 2.6334
                    CHANNELS 3 Zrotation Xrotation Yrotation
                    JOINT LeftFinger02
                    {
                      OFFSET -0.823 -2.3 1.6571
                      CHANNELS 3 Zrotation Xrotation Yrotation
                      End Site
                      {
                        OFFSET -0.5822 -1.6914 1.1582
                      }
                    }
                  }
                }
              }
            }
          }
        }
        JOINT RightCollar
        {
          OFFSET -2.2603 21.606 7.4023
          CHANNELS 3 Zrotation Xrotation Yrotation
          JOINT RightShoulder
          {
            OFFSET -13.5187 -1.1334 -5.0155
            CHANNELS 3 Zrotation Xrotation Yrotation
            JOINT RightElbow
            {
              OFFSET 0.0994 -28.0499 -0.2431
              CHANNELS 3 Zrotation Xrotation Yrotation
              JOINT RightWrist
              {
                OFFSET -0.0679 -23.3996 -0.1402
                CHANNELS 3 Zrotation Xrotation Yrotation
                JOINT RightFinger1
                {
                  OFFSET -0.7932 -9.0691 2.5189
                  CHANNELS 3 Zrotation Xrotation Yrotation
                  JOINT RightFinger11
                  {
                    OFFSET 0.8272 -3.3923 0.5977
                    CHANNELS 3 Zrotation Xrotation Yrotation
                    JOINT RightFinger12
                    {
                      OFFSET 0.565 -2.3158 0.4082
                      CHANNELS 3 Zrotation Xrotation Yrotation
                      End Site
                      {
                        OFFSET 0.4919 -1.6479 0.2673
                      }
                    }
                  }
                }
                JOINT RightFinger2
                {
                  OFFSET -0.916 -9.2044 0.2193
                  CHANNELS 3 Zrotation Xrotation Yrotation
                  JOINT RightFinger21
                  {
                    OFFSET -0.0117 -4.1944 -0.0248
                    CHANNELS 3 Zrotation Xrotation Yrotation
                    JOINT RightFinger22
                    {
                      OFFSET -0.0071 -2.3249 -0.0142
                      CHANNELS 3 Zrotation Xrotation Yrotation
                      End Site
                      {
                        OFFSET 0.1475 -2.0882 0.0028
                      }
                    }
                  }
                }
                JOINT RightFinger3
                {
                  OFFSET -0.6113 -8.7231 -2.0637
                  CHANNELS 3 Zrotation Xrotation Yrotation
                  JOINT RightFinger31
                  {
                    OFFSET 0.1927 -3.8059 -0.2383
                    CHANNELS 3 Zrotation Xrotation Yrotation
                    JOINT RightFinger32
                    {
                      OFFSET 0.1091 -2.1688 -0.1362
                      CHANNELS 3 Zrotation Xrotation Yrotation
                      End Site
                      {
                        OFFSET 0.2358 -1.9176 -0.0906
                      }
                    }
                  }
                }
                JOINT RightFinger4
                {
                  OFFSET 0.6151 -8.0947 -3.564
                  CHANNELS 3 Zrotation Xrotation Yrotation
                  JOINT RightFinger41
                  {
                    OFFSET 0.4882 -2.341 -0.6462
                    CHANNELS 3 Zrotation Xrotation Yrotation
                    JOINT RightFinger42
                    {
                      OFFSET 0.3574 -1.7166 -0.4742
                      CHANNELS 3 Zrotation Xrotation Yrotation
                      End Site
                      {
                        OFFSET 0.4187 -1.5237 -0.3496
                      }
                    }
                  }
                }
                JOINT RightFinger0
                {
                  OFFSET 1.4199 -1.8761 1.4221
                  CHANNELS 3 Zrotation Xrotation Yrotation
                  JOINT RightFinger01
                  {
                    OFFSET 1.1472 -3.4929 2.6336
                    CHANNELS 3 Zrotation Xrotation Yrotation
                    JOINT RightFinger02
                    {
                      OFFSET 0.8229 -2.3 1.6571
                      CHANNELS 3 Zrotation Xrotation Yrotation
                      End Site
                      {
                        OFFSET 0.5822 -1.6914 1.1582
                      }
                    }
                  }
                }
              }
            }
          }
        }
      }
    }
  }
  JOINT RightHip
  {
    OFFSET -9.412 3.9771 -0.7758
    CHANNELS 3 Zrotation Xrotation Yrotation
    JOINT RightKnee
    {
      OFFSET -0.7531 -40.938 0
      CHANNELS 3 Zrotation Xrotation Yrotation
      JOINT RightAnkle
      {
        OFFSET 0 -40.1986 0
        CHANNELS 3 Zrotation Xrotation Yrotation
        JOINT RightToe
        {
          OFFSET 0 -4.4182 9.239
          CHANNELS 3 Zrotation Xrotation Yrotation
          End Site
          {
            OFFSET 0 0 6.1981
          }
        }
      }
    }
  }
  JOINT LeftHip
  {
    OFFSET 9.4119 3.9773 -0.7758
    CHANNELS 3 Zrotation Xrotation Yrotation
    JOINT LeftKnee
    {
      OFFSET 0.7532 -40.9383 0
      CHANNELS 3 Zrotation Xrotation Yrotation
      JOINT LeftAnkle
      {
        OFFSET 0 -40.1986 0
        CHANNELS 3 Zrotation Xrotation Yrotation
        JOINT LeftToe
        {
          OFFSET 0 -4.4182 9.239
          CHANNELS 3 Zrotation Xrotation Yrotation
          End Site
          {
            OFFSET 0 0 6.1981
          }
        }
      }
    }
  }
}
MOTION
Frames:	4
Frame Time:	0.0333333
7.00377 31.5989 1.19064 2.07949e-006 12.9934 -5.27131e-007 2.54334 3.2276 -1.33486 5.17353 6.39171 -2.81871 5.17355 6.39173 -2.81872 -9.86882 -31.6543 -5.28769 -0.0444375 -18.115 -1.34254 -23.9683 -46.8918 -62.4524 56.8695 6.52833 22.4697 -30.0845 -13.9085 -16.8591 -6.52135 36.8755 19.3953 -8.60659e-006 6.96803e-006 4.53506e-006 1.59028e-015 3.18055e-015 -0 -1.44265e-005 -3.48387e-007 3.00837e-006 -8.60659e-006 6.96803e-006 4.53506e-006 -0.0128118 0.0023268 9.42688e-005 -3.57402e-006 2.22355e-006 2.7731e-006 -8.60659e-006 6.96803e-006 4.53506e-006 -0.0159956 0.00298034 0.000853785 -5.70748e-006 -9.24825e-007 5.09961e-006 -8.60659e-006 6.96803e-006 4.53506e-006 -0.0126594 0.00313879 0.00284813 3.93815e-006 2.37913e-006 -2.52011e-006 -8.60659e-006 6.96803e-006 4.53506e-006 1.59028e-015 3.18055e-015 -0 -1.44265e-005 -3.48387e-007 3.00837e-006 -10.8992 -7.19988 -5.36265 -26.9407 -12.9765 -58.7189 83.1988 -25.7337 75.3672 -20.4415 13.8622 8.77127 -1.43745e-005 -1.60013e-005 7.82462e-006 -2.14179e-006 1.75833e-006 2.14464e-006 7.84413e-006 5.13887e-006 -2.52797e-006 -1.43745e-005 -1.60013e-005 7.82462e-006 0.0129433 0.00232713 -9.38525e-005 -2.71083e-006 -4.67051e-006 1.16334e-006 -1.43745e-005 -1.60013e-005 7.82462e-006 0.0163552 0.00304847 -0.000877639 -2.82377e-006 -1.67169e-007 1.65985e-006 -1.43745e-005 -1.60013e-005 7.82462e-006 0.0145778 0.00367557 -0.00326121 -2.0932e-006 1.72442e-006 3.45242e-007 -1.43745e-005 -1.60013e-005 7.82462e-006 -2.14179e-006 1.75833e-006 2.14464e-006 7.84413e-006 5.13887e-006 -2.52797e-006 -17.8576 -13.3385 -19.5683 -171.624 82.0416 168.921 7.62896 51.6705 -14.3968 7.95139e-016 -6.36111e-015 1.59028e-015 3.99513 -13.153 19.7175 171.055 82.8312 -168.709 -19.1615 43.9869 32.0354 -4.1368e-007 1.96332e-008 -7.33986e-007 
7.00354 31.6356 1.60676 -1.97747e-006 11.93 1.27899e-006 2.57476 3.77367 -1.23492 5.2475 7.48693 -2.6474 5.24752 7.48696 -2.64742 -9.8937 -31.6815 -5.30301 -0.0438247 -18.3243 -1.33247 -24.5185 -48.6707 -63.4118 56.6497 6.39221 22.5272 -30.7735 -14.1437 -17.0323 -6.24725 37.1032 19.586 7.32311e-006 1.02273e-006 4.38275e-006 -5.37226e-006 3.63199e-006 4.78599e-006 3.18056e-015 -1.4708e-006 1.27222e-014 7.32311e-006 1.02273e-006 4.38275e-006 -0.0128126 0.00232239 8.57731e-005 -3.08755e-007 -1.70488e-006 3.05462e-006 7.32311e-006 1.02273e-006 4.38275e-006 -0.0160589 0.00300076 0.000855581 -6.12784e-006 -5.81522e-006 1.5391e-006 7.32311e-006 1.02273e-006 4.38275e-006 -0.0125369 0.00311901 0.00281863 2.11797e-006 -1.00731e-005 -4.14734e-006 7.32311e-006 1.02273e-006 4.38275e-006 -5.37226e-006 3.63199e-006 4.78599e-006 3.18056e-015 -1.4708e-006 1.27222e-014 -11.9202 -7.79656 -6.48498 -26.6282 -12.905 -58.6074 83.6757 -25.5434 75.5869 -21.0199 13.5641 7.79867 5.79807e-006 1.31119e-005 1.18648e-006 -1.76556e-031 3.18055e-015 3.18055e-015 -6.36111e-015 9.54166e-015 7.15625e-015 5.79807e-006 1.31119e-005 1.18648e-006 0.0129585 0.00232689 -9.07123e-005 3.18055e-015 9.54166e-015 3.97569e-015 5.79807e-006 1.31119e-005 1.18648e-006 0.016354 0.00304593 -0.000875356 9.2692e-031 -9.54166e-015 5.56597e-015 5.79807e-006 1.31119e-005 1.18648e-006 0.0146338 0.00368518 -0.00327498 -1.59028e-015 0 -5.56597e-015 5.79807e-006 1.31119e-005 1.18648e-006 -1.76556e-031 3.18055e-015 3.18055e-015 -6.36111e-015 9.54166e-015 7.15625e-015 -18.0012 -11.8216 -19.4088 -171.273 82.5495 168.587 7.05557 51.7665 -13.9356 -2.92394e-006 2.96398e-006 9.19971e-007 3.80847 -11.6755 19.425 170.874 83.3761 -168.56 -19.3473 44.072 32.1116 -2.49505e-006 -8.97829e-007 1.70564e-006 
7.00339 31.6853 2.12612 3.63697e-007 10.5995 -2.03707e-007 2.61008 4.46296 -1.10803 5.33061 8.86966 -2.43045 5.33064 8.8697 -2.43047 -9.91859 -31.7086 -5.31835 -0.0431523 -18.5336 -1.32239 -25.3138 -50.8929 -64.7158 56.3747 6.22416 22.5986 -31.6373 -14.4377 -17.2533 -5.90462 37.3886 19.8234 -1.76556e-031 -3.18055e-015 -3.18055e-015 7.5556e-007 -2.31856e-006 1.43449e-006 9.54166e-015 1.4674e-006 -6.36111e-015 -1.76556e-031 -3.18055e-015 -3.18055e-015 -0.0127883 0.00230747 7.84373e-005 -3.89435e-006 1.2436e-005 7.60997e-006 -1.76556e-031 -3.18055e-015 -3.18055e-015 -0.016086 0.00299869 0.000854951 2.91499e-006 6.25777e-006 4.17527e-006 -1.76556e-031 -3.18055e-015 -3.18055e-015 -0.0125714 0.00311486 0.00281777 3.85762e-007 3.55761e-006 2.77028e-007 -1.76556e-031 -3.18055e-015 -3.18055e-015 7.5556e-007 -2.31856e-006 1.43449e-006 9.54166e-015 1.4674e-006 -6.36111e-015 -13.2063 -8.53478 -7.92036 -26.2384 -12.8154 -58.4685 84.2701 -25.3037 75.8585 -21.7491 13.2018 6.57892 -1.59028e-015 -6.36111e-015 3.18055e-015 4.96381e-006 -1.55283e-006 -3.8007e-006 4.55818e-006 1.04237e-005 -4.8239e-006 -1.59028e-015 -6.36111e-015 3.18055e-015 0.012956 0.00231232 -9.13816e-005 3.41284e-006 7.57507e-006 -4.53083e-006 -1.59028e-015 -6.36111e-015 3.18055e-015 0.0163411 0.00303954 -0.000879549 7.31893e-006 5.8982e-006 -4.67574e-006 -1.59028e-015 -6.36111e-015 3.18055e-015 0.014564 0.00368673 -0.00327345 5.43155e-007 1.79954e-006 7.55136e-007 -1.59028e-015 -6.36111e-015 3.18055e-015 4.96381e-006 -1.55283e-006 -3.8007e-006 4.55818e-006 1.04237e-005 -4.8239e-006 -18.1858 -9.92165 -19.2092 -170.764 83.1836 168.097 6.3356 51.8822 -13.3561 2.92253e-006 -8.85226e-007 -9.20723e-007 3.58755 -9.82441 19.0698 170.609 84.0552 -168.333 -19.5802 44.1778 32.2076 8.26924e-007 3.03774e-006 1.468e-006 
7.00336 31.7338 2.59277 1.58764e-007 9.40026 8.82852e-007 2.63886 5.09149 -0.991363 5.39805 10.1308 -2.23126 5.39807 10.1308 -2.23127 -9.94348 -31.7357 -5.33372 -0.0424171 -18.7429 -1.31229 -26.1325 -52.885 -65.9863 56.1275 6.07244 22.6621 -32.4173 -14.6993 -17.4568 -5.59639 37.6466 20.0361 -3.96296e-007 -5.01874e-006 -2.881e-007 2.17903e-006 -3.65348e-006 -4.07118e-006 1.59028e-015 -6.36111e-015 -3.18055e-015 -3.96296e-007 -5.01874e-006 -2.881e-007 -0.0128106 0.00232032 8.77315e-005 -3.53113e-031 3.18055e-015 6.36111e-015 -3.96296e-007 -5.01874e-006 -2.881e-007 -0.0160624 0.00299846 0.000858358 4.77083e-015 0 -0 -3.96296e-007 -5.01874e-006 -2.881e-007 -0.0126524 0.00313221 0.00284543 -3.53113e-031 -6.36111e-015 -3.18055e-015 -3.96296e-007 -5.01874e-006 -2.881e-007 2.17903e-006 -3.65348e-006 -4.07118e-006 1.59028e-015 -6.36111e-015 -3.18055e-015 -14.3891 -9.16546 -9.22713 -25.8873 -12.7335 -58.3441 84.8031 -25.0856 76.1006 -22.413 12.8891 5.47616 1.42517e-005 1.27653e-005 -1.65871e-006 -1.37768e-005 -1.22438e-005 5.88213e-006 6.74736e-007 0 4.8945e-007 1.42517e-005 1.27653e-005 -1.65871e-006 0.0129249 0.00230599 -8.44912e-005 -3.18055e-015 -1.27222e-014 -1.59028e-015 1.42517e-005 1.27653e-005 -1.65871e-006 0.0163567 0.00302566 -0.000873711 6.74763e-007 -3.18055e-015 4.89483e-007 1.42517e-005 1.27653e-005 -1.65871e-006 0.0145012 0.00364439 -0.00324548 3.18055e-015 3.18055e-015 6.36111e-015 1.42517e-005 1.27653e-005 -1.65871e-006 -1.37768e-005 -1.22438e-005 5.88213e-006 6.74736e-007 0 4.8945e-007 -18.3549 -8.20728 -19.0228 -170.219 83.7536 167.569 5.68463 51.982 -12.8317 -4.02675e-007 -3.72443e-008 -7.4059e-007 3.3967 -8.15282 18.7562 170.316 84.6659 -168.074 -19.7904 44.2722 32.2946 -3.97569e-015 1.944e-008 -0 
